<svg width="53" height="30" viewBox="0 0 53 30" fill="none" xmlns="http://www.w3.org/2000/svg">
<path d="M2.3694 15L15.7164 1.65301C16.0945 1.27486 16.0945 0.66176 15.7164 0.283611C15.3382 -0.0945377 14.7251 -0.0945377 14.347 0.283611L0.283615 14.347C0.1026 14.528 0.00823212 14.7629 0.000514984 15C0.00823212 15.2371 0.1026 15.472 0.283615 15.653L14.347 29.7164C14.7251 30.0945 15.3382 30.0945 15.7164 29.7164C16.0945 29.3382 16.0945 28.7251 15.7164 28.347L2.3694 15Z" fill="white"/>
<path d="M52 16C52.5523 16 53 15.5523 53 15C53 14.4477 52.5523 14 52 14L3 14C2.44772 14 2 14.4477 2 15C2 15.5523 2.44772 16 3 16L52 16Z" fill="white"/>
</svg>
