<svg width="27" height="26" viewBox="0 0 27 26" fill="none" xmlns="http://www.w3.org/2000/svg">
<path d="M20.1895 12.9823L24.6184 8.73054C26.4605 6.96207 26.4605 4.09482 24.6184 2.32635C22.7762 0.557883 19.7895 0.557883 17.9474 2.32635L11.2763 8.73054C9.43417 10.499 9.43417 13.3663 11.2763 15.1347C11.7421 15.5819 12.281 15.9159 12.8561 16.137M6.8474 12.9823L2.38162 17.2695C0.539461 19.0379 0.539461 21.9052 2.38162 23.6736C4.22377 25.4421 7.21049 25.4421 9.05265 23.6736L15.7237 17.2695C17.5658 15.501 17.5658 12.6337 15.7237 10.8653C15.2702 10.43 14.7474 10.1018 14.1894 9.8808" stroke="white" stroke-width="2" stroke-linecap="round"/>
</svg>
