<svg width="19" height="20" viewBox="0 0 19 20" fill="none" xmlns="http://www.w3.org/2000/svg">
<path d="M9.5 16L9.13142 16.3379L9.5 16.7399L9.86858 16.3379L9.5 16ZM10 1C10 0.723858 9.77614 0.5 9.5 0.5C9.22386 0.5 9 0.723858 9 1H10ZM15.3686 10.3379C15.5552 10.1343 15.5414 9.81802 15.3379 9.63142C15.1343 9.44483 14.818 9.45858 14.6314 9.66214L15.3686 10.3379ZM4.36858 9.66214C4.18198 9.45858 3.8657 9.44483 3.66214 9.63142C3.45858 9.81802 3.44483 10.1343 3.63142 10.3379L4.36858 9.66214ZM18.5 17C18.5 16.7239 18.2761 16.5 18 16.5C17.7239 16.5 17.5 16.7239 17.5 17H18.5ZM1.5 17C1.5 16.7239 1.27614 16.5 1 16.5C0.723858 16.5 0.5 16.7239 0.5 17H1.5ZM10 16V1H9V16H10ZM9.86858 16.3379L15.3686 10.3379L14.6314 9.66214L9.13142 15.6621L9.86858 16.3379ZM9.86858 15.6621L4.36858 9.66214L3.63142 10.3379L9.13142 16.3379L9.86858 15.6621ZM3 20H16V19H3V20ZM18.5 17.5V17H17.5V17.5H18.5ZM1.5 17.5V17H0.5V17.5H1.5ZM16 20C17.3807 20 18.5 18.8807 18.5 17.5H17.5C17.5 18.3284 16.8284 19 16 19V20ZM3 19C2.17157 19 1.5 18.3284 1.5 17.5H0.5C0.5 18.8807 1.61929 20 3 20V19Z" fill="#FF579E"/>
</svg>
