<svg width="36" height="36" viewBox="0 0 36 36" fill="none" xmlns="http://www.w3.org/2000/svg">
<path d="M13.3973 25.1471C7.49303 25.4365 1.56382 16.1931 4.80423 10.7165C10.0882 1.78611 21.4442 5.82533 17.3166 14.7261C15.3202 19.031 19.3017 24.8577 13.3973 25.1471Z" stroke="#FF57C6" stroke-width="1.35238"/>
<path d="M10.3355 12.3324C9.54472 6.39479 17.2861 7.005 20.9613 7.0051C24.6365 7.0052 29.4137 6.32887 30.7243 9.3987C31.7232 11.7384 31.1876 13.4143 24.6337 17.3436C18.0798 21.2728 11.3239 19.7545 10.3355 12.3324Z" stroke="#10E6D9" stroke-width="1.35238"/>
<path d="M31.17 13.9068C38.269 16.2133 32.9502 25.243 27.6459 26.9765C22.3417 28.71 17.0265 26.9185 16.5628 21.0617C16.0991 15.205 24.071 11.6004 31.17 13.9068Z" stroke="#ED534B" stroke-width="1.35238"/>
<path d="M28.7008 31.3722C25.6137 34.4613 22.0456 32.6802 20.6474 31.4036C18.0516 29.2244 13.3702 26.9001 13.7278 21.7666C14.1749 15.3497 20.3229 12.2982 25.3065 15.5558C30.2902 18.8133 32.5598 27.5108 28.7008 31.3722Z" stroke="#9F72FF" stroke-width="1.35238"/>
<path d="M25.3316 23.0569C26.5084 25.9216 25.197 29.9414 18.3528 32.7312C11.1683 35.6597 6.88817 31.4758 6.38446 26.8613C6.1057 24.3075 5.95999 21.7859 9.5462 19.8758C14.4149 17.2827 24.1549 20.1922 25.3316 23.0569Z" stroke="#FFA800" stroke-width="1.35238"/>
</svg>
