<svg width="52" height="49" viewBox="0 0 52 49" fill="none" xmlns="http://www.w3.org/2000/svg">
<path d="M24.012 13.4834C23.5077 13.2583 22.9164 13.4846 22.6912 13.9889C22.4661 14.4932 22.6924 15.0846 23.1967 15.3097L24.012 13.4834ZM28.0705 20.2315L28.9746 20.6586L28.0705 20.2315ZM15.0782 28.4435L16.0782 28.4435L15.0782 28.4435ZM36.8894 34.8113C37.311 35.168 37.942 35.1154 38.2987 34.6938C38.6555 34.2722 38.6029 33.6412 38.1813 33.2845L36.8894 34.8113ZM23.1967 15.3097C24.1827 15.7499 25.4786 16.5075 26.364 17.4077C27.27 18.3289 27.4962 19.106 27.1663 19.8043L28.9746 20.6586C29.8525 18.8004 28.8945 17.1283 27.7899 16.0053C26.6648 14.8613 25.1238 13.9798 24.012 13.4834L23.1967 15.3097ZM27.1663 19.8043C25.8022 22.6917 23.1427 23.09 20.2241 23.4764C18.8652 23.6564 17.3297 23.8473 16.1634 24.4988C15.5455 24.844 15.004 25.3289 14.6267 26.0157C14.2536 26.6949 14.0782 27.5039 14.0782 28.4435L16.0782 28.4435C16.0782 27.7499 16.2073 27.2923 16.3796 26.9786C16.5478 26.6724 16.7927 26.4382 17.1389 26.2448C17.9007 25.8192 19.0038 25.6555 20.4866 25.4591C23.2514 25.093 27.088 24.6519 28.9746 20.6586L27.1663 19.8043ZM14.0782 28.4435C14.0782 29.5904 14.3508 30.5614 14.9519 31.3183C15.5505 32.072 16.3822 32.4966 17.2759 32.7319C18.9949 33.1845 21.2889 33.0138 23.5708 32.8268C25.9354 32.633 28.4159 32.4032 30.7734 32.5998C33.1189 32.7954 35.2298 33.407 36.8894 34.8113L38.1813 33.2845C36.084 31.5099 33.5093 30.821 30.9397 30.6067C28.382 30.3934 25.7179 30.6441 23.4074 30.8335C21.0143 31.0296 19.1028 31.1447 17.7852 30.7978C17.1605 30.6333 16.7661 30.3868 16.5181 30.0745C16.2727 29.7655 16.0782 29.2758 16.0782 28.4435L14.0782 28.4435Z" fill="#FF57C6"/>
<path d="M46.7829 25.3781C47.9389 24.2221 50.3953 23.6441 50.8288 20.1762C51.1748 17.408 49.8194 14.5329 43.315 17.2864C38.8107 19.1932 37.2918 22.0483 35.2233 20.1762C33.1549 18.3042 36.4951 15.2319 40.4251 12.7358C44.3552 10.2397 43.893 3.99284 38.6912 3.99283C32.8826 3.99282 30.5995 12.7785 30.5995 13.8185" stroke="#9F72FF" stroke-width="2" stroke-linecap="round"/>
<path d="M29.8716 5.5257C29.5216 4.12001 27.3463 1.10088 24.6698 2.25902C21.0289 3.83444 24.621 9.11024 22.3108 10.1645C19.3696 11.5067 18.312 5.5257 13.6881 6.3049C10.4954 6.84294 7.90834 12.0847 12.6497 15.4359C16.9903 18.5038 19.4679 18.4425 21.2019 19.0205" stroke="#10CCC1" stroke-width="2" stroke-linecap="round"/>
<path d="M28.2883 26.5345C33.6709 25.8955 43.8938 25.9565 46.2057 31.1583C47.747 34.6262 45.0497 40.9839 38.6919 40.406C30.0702 39.6222 29.9455 36.6188 24.7117 36.6188C20.4437 36.6188 18.8534 40.5891 20.9179 42.3095C23.7632 44.6806 27.557 39.4641 37.0416 48.0002" stroke="#ED534B" stroke-width="2" stroke-linecap="round"/>
<path d="M12.1045 32.314C8.79572 33.223 5.74672 34.6259 3.43478 33.1772C-0.386836 30.7825 0.819174 26.762 3.4348 24.8002C5.74671 23.0663 10.9485 24.8002 10.9485 21.9103C10.9485 20.2249 1.70085 19.515 1.70085 16.7085C1.70085 12.6627 6.25569 13.8186 7.48064 13.2406" stroke="#FFA800" stroke-width="2" stroke-linecap="round"/>
</svg>
