<svg width="53" height="31" viewBox="0 0 53 31" fill="none" xmlns="http://www.w3.org/2000/svg">
<path d="M2.3694 15.2607L15.7164 1.91375C16.0945 1.5356 16.0945 0.922503 15.7164 0.544353C15.3382 0.166204 14.7251 0.166204 14.347 0.544353L0.283615 14.6077C0.1026 14.7887 0.00823212 15.0236 0.000514984 15.2607C0.00823212 15.4979 0.1026 15.7327 0.283615 15.9138L14.347 29.9771C14.7251 30.3553 15.3382 30.3553 15.7164 29.9771C16.0945 29.599 16.0945 28.9859 15.7164 28.6077L2.3694 15.2607Z" fill="#FF7284"/>
<path d="M52 16.2607C52.5523 16.2607 53 15.813 53 15.2607C53 14.7085 52.5523 14.2607 52 14.2607L3 14.2607C2.44772 14.2607 2 14.7085 2 15.2607C2 15.813 2.44772 16.2607 3 16.2607L52 16.2607Z" fill="#FF7284"/>
</svg>
