<svg width="53" height="31" viewBox="0 0 53 31" fill="none" xmlns="http://www.w3.org/2000/svg">
<path d="M50.6306 15.2607L37.2836 1.91375C36.9055 1.5356 36.9055 0.922503 37.2836 0.544353C37.6618 0.166204 38.2749 0.166204 38.653 0.544353L52.7164 14.6077C52.8974 14.7887 52.9918 15.0236 52.9995 15.2607C52.9918 15.4979 52.8974 15.7327 52.7164 15.9138L38.653 29.9771C38.2749 30.3553 37.6618 30.3553 37.2836 29.9771C36.9055 29.599 36.9055 28.9859 37.2836 28.6077L50.6306 15.2607Z" fill="#FF7284"/>
<path d="M1 16.2607C0.447716 16.2607 0 15.813 0 15.2607C0 14.7085 0.447715 14.2607 1 14.2607L50 14.2607C50.5523 14.2607 51 14.7085 51 15.2607C51 15.813 50.5523 16.2607 50 16.2607L1 16.2607Z" fill="#FF7284"/>
</svg>
