<svg width="33" height="25" viewBox="0 0 33 25" fill="none" xmlns="http://www.w3.org/2000/svg">
<path d="M30.0996 0L2.90039 9.38635e-07C1.30311 9.95377e-07 -2.55413e-08 1.29462 0 2.88462L9.7347e-07 22.1154C1.03659e-06 23.7 1.29731 25 2.90039 25L30.0996 25C31.6929 25 33 23.7097 33 22.1154L33 2.88462C33 1.3 31.7027 -3.6734e-08 30.0996 0ZM29.6991 1.92308L16.5615 14.9893L3.31025 1.92308L29.6991 1.92308ZM1.93359 21.7172L1.93359 3.27365L11.2457 12.4557L1.93359 21.7172ZM3.30084 23.0769L12.6188 13.8096L15.8838 17.029C16.2618 17.4017 16.8717 17.4005 17.2481 17.026L20.4316 13.8598L29.6992 23.0769H3.30084ZM31.0664 21.7171L21.7989 12.5L31.0664 3.28282L31.0664 21.7171Z" fill="white"/>
</svg>
