<svg width="53" height="30" viewBox="0 0 53 30" fill="none" xmlns="http://www.w3.org/2000/svg">
<path d="M2.36842 15L15.7154 1.65301C16.0936 1.27486 16.0936 0.66176 15.7154 0.283611C15.3373 -0.0945377 14.7242 -0.0945377 14.346 0.283611L0.282639 14.347C0.101624 14.528 0.00725555 14.7629 -0.000461578 15C0.00725555 15.2371 0.101624 15.472 0.282639 15.653L14.346 29.7164C14.7242 30.0945 15.3373 30.0945 15.7154 29.7164C16.0936 29.3382 16.0936 28.7251 15.7154 28.347L2.36842 15Z" fill="#FF579E"/>
<path d="M51.999 16C52.5513 16 52.999 15.5523 52.999 15C52.999 14.4477 52.5513 14 51.999 14L2.99902 14C2.44674 14 1.99902 14.4477 1.99902 15C1.99902 15.5523 2.44674 16 2.99902 16L51.999 16Z" fill="#FF579E"/>
</svg>
