<svg width="53" height="30" viewBox="0 0 53 30" fill="none" xmlns="http://www.w3.org/2000/svg">
<path d="M50.6296 15L37.2826 1.65301C36.9045 1.27486 36.9045 0.66176 37.2826 0.283611C37.6608 -0.0945377 38.2739 -0.0945377 38.652 0.283611L52.7154 14.347C52.8964 14.528 52.9908 14.7629 52.9985 15C52.9908 15.2371 52.8964 15.472 52.7154 15.653L38.652 29.7164C38.2739 30.0945 37.6608 30.0945 37.2826 29.7164C36.9045 29.3382 36.9045 28.7251 37.2826 28.347L50.6296 15Z" fill="#FF579E"/>
<path d="M0.999024 16C0.44674 16 -0.000976562 15.5523 -0.000976562 15C-0.000976562 14.4477 0.446739 14 0.999023 14L49.999 14C50.5513 14 50.999 14.4477 50.999 15C50.999 15.5523 50.5513 16 49.999 16L0.999024 16Z" fill="#FF579E"/>
</svg>
