<svg width="40" height="40" viewBox="0 0 40 40" fill="none" xmlns="http://www.w3.org/2000/svg">
<path fill-rule="evenodd" clip-rule="evenodd" d="M20 38C29.9411 38 38 29.9411 38 20C38 10.0589 29.9411 2 20 2C10.0589 2 2 10.0589 2 20C2 29.9411 10.0589 38 20 38ZM20 40C31.0457 40 40 31.0457 40 20C40 8.9543 31.0457 0 20 0C8.9543 0 0 8.9543 0 20C0 31.0457 8.9543 40 20 40Z" fill="#FF579E"/>
<path d="M28.4853 25.5147C27.1783 24.2077 25.6226 23.2402 23.9253 22.6545C25.7432 21.4024 26.9375 19.3069 26.9375 16.9375C26.9375 13.1122 23.8253 10 20 10C16.1747 10 13.0625 13.1122 13.0625 16.9375C13.0625 19.3069 14.2568 21.4024 16.0748 22.6545C14.3774 23.2402 12.8217 24.2077 11.5147 25.5147C9.29697 27.7325 8.05415 30.6654 8.00173 33.7935C8.00058 33.8623 8 34.9311 8 35L9.875 36C9.875 35.9427 9.87548 33.8855 9.87643 33.8284C9.96835 28.3243 14.4743 23.875 20 23.875C25.5399 23.875 30.0548 28.3472 30.1242 33.8709C30.1247 33.9139 30.125 35.9569 30.125 36L32 35C32 34.9569 31.9998 33.9139 31.9993 33.8709C31.9663 30.7138 30.7213 27.7508 28.4853 25.5147ZM20 22C17.2085 22 14.9375 19.729 14.9375 16.9375C14.9375 14.146 17.2085 11.875 20 11.875C22.7915 11.875 25.0625 14.146 25.0625 16.9375C25.0625 19.729 22.7915 22 20 22Z" fill="#FF579E"/>
</svg>
